<svg xmlns="http://www.w3.org/2000/svg" xmlns:xlink="http://www.w3.org/1999/xlink" id="Layer_1" x="0px" y="0px" width="548.281px" height="156.824px" viewBox="31.859 317.588 548.281 156.824" xml:space="preserve">
<g>
	<g>
		<path fill="#383A3C" d="M42.056,474.094h-7.304v-18.721h7.304c5.884,0,9.962,4.045,9.962,9.311v0.05    C52.001,469.999,47.939,474.094,42.056,474.094z M47.689,464.733c0-3.31-2.273-5.649-5.65-5.649h-3.176v11.283h3.176    c3.376,0,5.65-2.273,5.65-5.601V464.733z"></path>
		<path fill="#383A3C" d="M57,474.094v-18.721h4.112v18.721H57z"></path>
		<path fill="#383A3C" d="M80.083,474.094l-9.077-11.9v11.9h-4.062v-18.721h3.794l8.776,11.533v-11.533h4.062v18.721H80.083z"></path>
		<path fill="#383A3C" d="M89.227,474.094v-18.721h14.125v3.66H93.322v3.795h8.826v3.66h-8.826v3.929h10.163v3.66H89.227V474.094z     M94.041,453.902l3.026-4.73l3.51,1.521l-3.426,3.21H94.041z"></path>
		<path fill="#383A3C" d="M124.764,474.094h-7.305v-18.721h7.305c5.884,0,9.962,4.045,9.962,9.311v0.05    C134.726,469.999,130.647,474.094,124.764,474.094z M130.414,464.733c0-3.31-2.273-5.649-5.65-5.649h-3.176v11.283h3.176    c3.376,0,5.65-2.273,5.65-5.601V464.733z"></path>
		<path fill="#383A3C" d="M139.523,474.094v-18.721h14.125v3.66h-10.029v3.795h8.826v3.66h-8.826v3.929h10.163v3.66h-14.258V474.094    z"></path>
		<path fill="#383A3C" d="M168.207,474.228h-3.644l-7.572-18.854h4.547l4.897,13.188l4.897-13.188h4.446L168.207,474.228z"></path>
		<path fill="#383A3C" d="M179.807,474.094v-18.721h14.125v3.66h-10.029v3.795h8.826v3.66h-8.826v3.929h10.163v3.66h-14.258V474.094    z"></path>
		<path fill="#383A3C" d="M198.879,474.094v-18.721h4.112v14.977h9.344v3.744H198.879z"></path>
		<path fill="#383A3C" d="M224.604,474.412c-5.784,0-9.929-4.313-9.929-9.628v-0.051c0-5.332,4.195-9.678,9.979-9.678    c5.783,0,9.929,4.313,9.929,9.628v0.05C234.583,470.049,230.388,474.412,224.604,474.412z M230.271,464.733    c0-3.209-2.357-5.884-5.667-5.884c-3.326,0-5.616,2.625-5.616,5.834v0.05c0,3.21,2.357,5.884,5.667,5.884    c3.326,0,5.616-2.624,5.616-5.833V464.733z"></path>
		<path fill="#383A3C" d="M246.652,468.478h-3.125v5.616h-4.112v-18.721h7.656c4.463,0,7.171,2.641,7.171,6.469v0.05    C254.208,466.238,250.848,468.478,246.652,468.478z M250.045,461.926c0-1.839-1.287-2.842-3.343-2.842h-3.176v5.733h3.259    c2.056,0,3.26-1.237,3.26-2.842V461.926z"></path>
		<path fill="#383A3C" d="M273.046,474.094v-12.219l-5.266,8.007h-0.1l-5.215-7.923v12.152h-4.045V455.39h4.446l4.931,7.923    l4.915-7.923h4.446v18.722h-4.112V474.094z"></path>
		<path fill="#383A3C" d="M282.774,474.094v-18.721h14.125v3.66h-10.029v3.795h8.826v3.66h-8.826v3.929h10.163v3.66h-14.258V474.094    z"></path>
		<path fill="#383A3C" d="M314.984,474.094l-9.076-11.9v11.9h-4.062v-18.721h3.794l8.775,11.533v-11.533h4.063v18.721H314.984z"></path>
		<path fill="#383A3C" d="M332.603,459.167v14.927h-4.129v-14.927h-5.7v-3.794h15.513v3.794H332.603z"></path>
		<path fill="#383A3C" d="M360.551,474.412c-5.517,0-9.611-4.246-9.611-9.628v-0.051c0-5.332,4.012-9.678,9.762-9.678    c3.526,0,5.649,1.17,7.388,2.892l-2.624,3.025c-1.438-1.304-2.925-2.106-4.797-2.106c-3.159,0-5.433,2.625-5.433,5.834v0.05    c0,3.21,2.223,5.884,5.433,5.884c2.14,0,3.443-0.853,4.931-2.189l2.624,2.642C366.301,473.125,364.161,474.412,360.551,474.412z"></path>
		<path fill="#383A3C" d="M381.228,474.412c-5.783,0-9.929-4.313-9.929-9.628v-0.051c0-5.332,4.195-9.678,9.979-9.678    c5.784,0,9.93,4.313,9.93,9.628v0.05C391.207,470.049,386.994,474.412,381.228,474.412z M386.895,464.733    c0-3.209-2.357-5.884-5.667-5.884c-3.326,0-5.616,2.625-5.616,5.834v0.05c0,3.21,2.356,5.884,5.666,5.884    c3.327,0,5.617-2.624,5.617-5.833V464.733z"></path>
		<path fill="#383A3C" d="M407.37,474.094l-4.012-6h-3.242v6h-4.112v-18.721h8.559c4.412,0,7.07,2.323,7.07,6.185v0.05    c0,3.026-1.638,4.932-4.012,5.801l4.58,6.686H407.37z M407.454,461.758c0-1.771-1.237-2.674-3.243-2.674h-4.095v5.382h4.179    c2.006,0,3.159-1.069,3.159-2.641V461.758z"></path>
		<path fill="#383A3C" d="M423.751,468.478h-3.125v5.616h-4.112v-18.721h7.655c4.464,0,7.171,2.641,7.171,6.469v0.05    C431.307,466.238,427.947,468.478,423.751,468.478z M427.145,461.926c0-1.839-1.287-2.842-3.343-2.842h-3.176v5.733h3.259    c2.057,0,3.26-1.237,3.26-2.842V461.926z"></path>
		<path fill="#383A3C" d="M444.612,474.412c-5.783,0-9.929-4.313-9.929-9.628v-0.051c0-5.332,4.195-9.678,9.979-9.678    c5.784,0,9.93,4.313,9.93,9.628v0.05C454.592,470.049,450.379,474.412,444.612,474.412z M450.278,464.733    c0-3.209-2.356-5.884-5.666-5.884c-3.326,0-5.616,2.625-5.616,5.834v0.05c0,3.21,2.356,5.884,5.666,5.884    c3.326,0,5.616-2.624,5.616-5.833V464.733z"></path>
		<path fill="#383A3C" d="M470.755,474.094l-4.012-6h-3.242v6h-4.112v-18.721h8.559c4.412,0,7.07,2.323,7.07,6.185v0.05    c0,3.026-1.638,4.932-4.012,5.801l4.58,6.686H470.755z M470.839,461.758c0-1.771-1.237-2.674-3.243-2.674h-4.095v5.382h4.179    c2.006,0,3.159-1.069,3.159-2.641V461.758z"></path>
		<path fill="#383A3C" d="M493.822,474.094l-1.705-4.195h-7.923l-1.705,4.195h-4.195l8.023-18.854h3.794l8.023,18.854H493.822z     M488.139,460.188l-2.49,6.067h4.981L488.139,460.188z"></path>
		<path fill="#383A3C" d="M508.23,459.167v14.927h-4.128v-14.927h-5.7v-3.794h15.512v3.794H508.23z"></path>
		<path fill="#383A3C" d="M518.41,474.094v-18.721h4.112v18.721H518.41z"></path>
		<path fill="#383A3C" d="M537.466,474.412c-5.783,0-9.929-4.313-9.929-9.628v-0.051c0-5.332,4.195-9.678,9.979-9.678    c5.783,0,9.929,4.313,9.929,9.628v0.05C547.445,470.049,543.232,474.412,537.466,474.412z M543.133,464.733    c0-3.209-2.357-5.884-5.667-5.884c-3.326,0-5.616,2.625-5.616,5.834v0.05c0,3.21,2.357,5.884,5.667,5.884    c3.326,0,5.616-2.624,5.616-5.833V464.733z"></path>
		<path fill="#383A3C" d="M565.381,474.094l-9.076-11.9v11.9h-4.063v-18.721h3.795l8.775,11.533v-11.533h4.062v18.721H565.381z"></path>
	</g>
	<path fill="#C10000" d="M355.353,430.885V319.41h46.803c35.103,0,60.325,21.062,60.325,55.662s-25.24,55.829-60.158,55.829h-46.97   V430.885z M433.062,375.072c0-17.217-10.363-30.589-30.756-30.589h-18.22v61.328h18.053   C421.712,405.812,433.062,391.621,433.062,375.072z"></path>
	<path fill="#C10000" d="M471.173,375.239c0-34.434,26.076-57.651,60.326-57.651c26.911,0,41.454,15.211,48.642,29.753   l-24.739,11.868c-3.677-8.859-13.205-16.214-23.902-16.214c-18.22,0-31.091,13.874-31.091,32.261   c0,18.22,12.871,32.26,31.091,32.26c10.697,0,20.226-7.354,23.902-16.214l24.739,11.701c-7.188,14.208-21.73,29.92-48.642,29.92   C497.249,432.891,471.173,409.489,471.173,375.239z"></path>
	<path fill="#C10000" d="M280.651,319.41h-34.367l19.039,25.073h15.495c20.393,0,30.756,13.372,30.756,30.589   c0,16.548-11.366,30.757-30.923,30.757h-15.328l-19.039,25.072h34.534c34.936,0,60.158-21.229,60.158-55.829   S315.736,319.41,280.651,319.41z"></path>
	<polygon fill="#C10000" points="229.469,319.594 197.659,319.594 213.556,340.555  "></polygon>
	<polygon fill="#C10000" points="219.623,343.33 251.7,343.33 235.67,322.202  "></polygon>
	<polygon fill="#C10000" points="252.436,348.328 218.905,348.328 235.67,370.409  "></polygon>
	<polygon fill="#C10000" points="218.771,401.9 252.553,401.9 235.67,379.669  "></polygon>
	<polygon fill="#C10000" points="181.161,321.566 158.312,321.566 169.745,336.61  "></polygon>
	<polygon fill="#C10000" points="179.557,341.675 204.128,341.675 191.842,325.511  "></polygon>
	<polygon fill="#C10000" points="252.118,406.681 219.222,406.681 235.67,428.327  "></polygon>
	<polygon fill="#C10000" points="134.876,322.486 116.205,322.486 125.532,334.788  "></polygon>
	<polygon fill="#C10000" points="137.451,340.756 157.827,340.756 147.647,327.35  "></polygon>
	<polygon fill="#C10000" points="203.727,350.467 179.958,350.467 191.842,366.13  "></polygon>
	<polygon fill="#C10000" points="200.869,371.127 227.012,371.127 213.94,353.911  "></polygon>
	<polygon fill="#C10000" points="197.125,430.818 230.003,430.818 213.556,409.155  "></polygon>
	<polygon fill="#C10000" points="88.324,323.522 74.367,323.522 81.337,332.716  "></polygon>
	<polygon fill="#C10000" points="95.628,339.719 111.257,339.719 103.435,329.423  "></polygon>
	<polygon fill="#C10000" points="157.342,351.437 137.935,351.437 147.647,364.208  "></polygon>
	<polygon fill="#C10000" points="159.297,369.974 180.192,369.974 169.745,356.217  "></polygon>
	<polygon fill="#C10000" points="226.527,379.268 201.37,379.268 213.94,395.833  "></polygon>
	<polygon fill="#C10000" points="244.747,371.127 270.873,371.127 257.818,353.911  "></polygon>
	<polygon fill="#C10000" points="270.388,379.268 245.231,379.268 257.818,395.833  "></polygon>
	<polygon fill="#C10000" points="31.859,324.274 37.142,331.211 42.424,324.274  "></polygon>
	<polygon fill="#C10000" points="53.322,338.884 65.157,338.884 59.239,331.094  "></polygon>
	<polygon fill="#C10000" points="110.756,352.473 96.13,352.473 103.435,362.101  "></polygon>
	<polygon fill="#C10000" points="117.342,368.988 133.74,368.988 125.532,358.19  "></polygon>
	<polygon fill="#C10000" points="179.473,380.521 160.016,380.521 169.745,393.342  "></polygon>
	<polygon fill="#C10000" points="181.128,399.192 202.557,399.192 191.842,385.102  "></polygon>
	<polygon fill="#C10000" points="53.69,353.259 59.239,360.547 64.789,353.259  "></polygon>
	<polygon fill="#C10000" points="75.37,368.019 87.321,368.019 81.337,360.146  "></polygon>
	<polygon fill="#C10000" points="132.954,381.541 118.127,381.541 125.532,391.303  "></polygon>
	<polygon fill="#C10000" points="139.457,398.09 155.821,398.09 147.647,387.308  "></polygon>
	<polygon fill="#C10000" points="201.671,409.573 182.014,409.573 191.842,422.527  "></polygon>
	<polygon fill="#C10000" points="32.428,367.467 41.855,367.467 37.142,361.249  "></polygon>
	<polygon fill="#C10000" points="76.088,382.477 81.337,389.397 86.603,382.477  "></polygon>
	<polygon fill="#C10000" points="97.634,397.036 109.251,397.036 103.435,389.397  "></polygon>
	<polygon fill="#C10000" points="154.918,410.692 140.359,410.692 147.647,420.287  "></polygon>
	<polygon fill="#C10000" points="161.771,427.091 177.718,427.091 169.745,416.594  "></polygon>
	<polygon fill="#C10000" points="32.996,382.962 37.142,388.428 41.287,382.962  "></polygon>
	<polygon fill="#C10000" points="55.01,396.351 63.468,396.351 59.239,390.768  "></polygon>
	<polygon fill="#C10000" points="98.521,411.729 103.435,418.215 108.349,411.729  "></polygon>
	<polygon fill="#C10000" points="119.983,426.037 131.115,426.037 125.532,418.716  "></polygon>
	<polygon fill="#C10000" points="55.813,412.381 59.239,416.911 62.683,412.381  "></polygon>
	<polygon fill="#C10000" points="77.81,425.151 84.881,425.151 81.337,420.488  "></polygon>
	<polygon fill="#C10000" points="34.484,424.768 39.799,424.768 37.142,421.257  "></polygon>
</g>
</svg>