<svg width="32" height="32" viewBox="0 0 32 32" fill="none" xmlns="http://www.w3.org/2000/svg">
  <!-- Background Circle -->
  <circle cx="16" cy="16" r="15" fill="white" stroke="#E5E7EB" stroke-width="1"/>
  
  <!-- Ballot Box -->
  <rect x="8" y="14" width="16" height="12" rx="2" fill="#1D4ED8"/>
  
  <!-- Ballot Slot -->
  <rect x="10" y="11" width="12" height="2" rx="1" fill="#1E40AF"/>
  
  <!-- Ballot Paper -->
  <rect x="11" y="8" width="10" height="6" rx="1" fill="white" stroke="#E5E7EB" stroke-width="0.5"/>
  
  <!-- Check Mark -->
  <path d="M13.5 10.5L15 12L18.5 8.5" stroke="#10B981" stroke-width="1.5" stroke-linecap="round" stroke-linejoin="round"/>
  
  <!-- Stars -->
  <g fill="#DC2626">
    <path d="M6 8L6.5 9H8L7 9.5L7.5 11L6 10L4.5 11L5 9.5L4 9H5.5L6 8Z"/>
    <path d="M26 8L26.5 9H28L27 9.5L27.5 11L26 10L24.5 11L25 9.5L24 9H25.5L26 8Z"/>
  </g>
  
  <!-- Bottom accent -->
  <rect x="8" y="24" width="16" height="2" rx="1" fill="#DC2626" opacity="0.8"/>
</svg>